<?xml version="1.0" encoding="utf-8"?>
<!-- Generator: Adobe Illustrator 16.0.0, SVG Export Plug-In . SVG Version: 6.00 Build 0)  -->
<!DOCTYPE svg PUBLIC "-//W3C//DTD SVG 1.1//EN" "http://www.w3.org/Graphics/SVG/1.1/DTD/svg11.dtd">
<svg version="1.1" xmlns="http://www.w3.org/2000/svg" xmlns:xlink="http://www.w3.org/1999/xlink" x="0px" y="0px"
	 width="892.667px" height="325.083px" viewBox="0 0 892.667 325.083" enable-background="new 0 0 892.667 325.083"
	 xml:space="preserve">
<g id="Layer_1">
	<path fill="#FFFFFF" stroke="#1563A9" stroke-width="8" stroke-miterlimit="10" d="M27.16,320.639l93.567-30.072
		c0,0,111.931-120.291,142.003-145.352c0,0,102.754,156.209,187.96,175.424H27.16z"/>
	<polyline fill="#1563A9" points="27.16,320.639 182.644,320.639 234.645,230.421 259.08,245.144 262.73,145.215 120.727,290.567 
		27.16,320.639 	"/>
	<path fill="#FFFFFF" stroke="#1563A9" stroke-width="8" stroke-miterlimit="10" d="M295.31,167.77
		c241.419,185.449,562.196,152.87,562.196,152.87c-31.746-4.18-107.762-35.084-107.762-35.084
		c-15.873-17.543-100.242-110.267-100.242-110.267c-5.85,3.34-45.109,35.084-45.109,35.084
		C578.495,183.638,420.617,31.607,420.617,31.607C384.701,65.858,295.31,167.77,295.31,167.77L295.31,167.77z"/>
	<path fill="#1563A9" d="M295.31,167.77L295.31,167.77L420.617,31.607l33.935,100.764l-45.421,25.687l106.194,57.012l-160.021-3.952
		C355.304,211.119,303.038,170.275,295.31,167.77z"/>
	<path fill="#1563A9" d="M822.85,322.526c0,0-1.981-1.68,33.609-2.244l-103.366-33.322L650.418,177.089l-48.742,33.553L419.57,31.25
		l11.106,32.978c0,0,185.408,177.113,219.868,212.824l-20.675-41.35l20.675-40.723l93.788,102.187L822.85,322.526z"/>
	<g>
		<g>
			<path fill="#FFFFFF" d="M177.502,323.139c-16.653,0-27.573-1.241-32.6-1.98l-2.136-0.314V187.301l2.01-0.402
				c8.191-1.639,24.22-2.783,38.979-2.783c19.663,0,30.542,2.1,40.104,7.743c10.869,5.802,17.101,15.994,17.101,27.97
				c0,12.09-6.422,22.063-17.834,28.052c14.094,5.853,22.327,17.804,22.327,32.903c0,11.815-5.05,22.148-14.603,29.882
				C220.297,319.063,202.853,323.139,177.502,323.139z M177.268,295.903c2.402,0.159,5.326,0.159,9.027,0.159
				c8.552,0,22.898-2.138,22.898-16.451c0-13.974-15.204-16.06-24.266-16.06h-7.659V295.903z M184.536,237.255
				c13.683,0,21.53-4.999,21.53-13.716c0-10.528-10.115-12.738-18.6-12.738c-4.811,0-8.005,0.224-10.199,0.47v25.984H184.536z"/>
			<path fill="#1563A9" d="M183.754,186.615c18.17,0,29.305,1.758,38.879,7.423c9.182,4.884,15.825,13.872,15.825,25.79
				c0,11.721-6.838,22.663-21.687,28.133v0.39c15.043,4.104,26.18,15.435,26.18,32.433c0,11.917-5.47,21.296-13.676,27.938
				c-9.573,7.619-25.594,11.917-51.773,11.917c-14.653,0-25.593-0.977-32.236-1.954V189.35
				C153.081,187.787,168.906,186.615,183.754,186.615 M174.768,239.755h9.769c15.629,0,24.03-6.446,24.03-16.216
				c0-9.963-7.619-15.238-21.1-15.238c-6.447,0-10.16,0.391-12.699,0.781V239.755 M186.294,298.562
				c13.48,0,25.398-5.079,25.398-18.951c0-13.285-11.917-18.56-26.766-18.56h-10.159v37.12
				C177.698,298.562,181.215,298.562,186.294,298.562 M183.754,181.615c-14.904,0-31.135,1.165-39.469,2.832l-4.019,0.804v4.099
				v129.335v4.318l4.272,0.628c5.095,0.75,16.152,2.008,32.964,2.008c26.298,0,43.739-4.133,54.887-13.005
				c10.192-8.25,15.562-19.255,15.562-31.851c0-14.342-7.299-26.335-19.624-33.143c9.63-6.578,15.131-16.45,15.131-27.813
				c0-12.912-6.696-23.895-18.375-30.15C215.104,183.802,203.884,181.615,183.754,181.615L183.754,181.615z M179.768,213.55
				c1.929-0.144,4.425-0.249,7.699-0.249c16.1,0,16.1,7.706,16.1,10.238c0,10.123-13.309,11.216-19.03,11.216h-4.769V213.55
				L179.768,213.55z M179.768,266.051h5.159c9.93,0,21.766,2.353,21.766,13.56c0,11.53-11.092,13.951-20.398,13.951
				c-2.521,0-4.673,0-6.527-0.05V266.051L179.768,266.051z"/>
		</g>
		<g>
			<rect x="260.772" y="185.092" fill="#FFFFFF" width="34.892" height="136.68"/>
			<path fill="#1563A9" d="M293.165,187.592v131.68h-29.892v-131.68H293.165 M298.165,182.592h-5h-29.892h-5v5v131.68v5h5h29.892h5
				v-5v-131.68V182.592L298.165,182.592z"/>
		</g>
		<g>
			<path fill="#FFFFFF" d="M390.566,321.772l-31.153-54.944l-8.458,10.354v44.591h-34.501v-136.68h34.501v52.749
				c0.751-1.194,1.502-2.37,2.243-3.533c0.914-1.433,1.821-2.855,2.71-4.277l30.692-44.938h42.962l-45.645,58.745l47.324,77.936
				H390.566z"/>
			<path fill="#1563A9" d="M424.454,187.592l-43.567,56.071l45.912,75.609h-34.776l-32.236-56.854l-11.332,13.871v42.982h-29.501
				v-131.68h29.501v58.221h0.586c2.931-5.081,6.057-9.77,8.987-14.458l29.892-43.763H424.454 M434.671,182.592h-10.217H387.92h-2.64
				l-1.489,2.18l-29.892,43.763l-0.057,0.084l-0.054,0.086c-0.111,0.178-0.222,0.354-0.333,0.532v-41.645v-5h-5h-29.501h-5v5v131.68
				v5h5h29.501h5v-5v-41.199l5.584-6.836l28.634,50.501l1.437,2.534h2.913h34.776h8.886l-4.612-7.595l-44.125-72.666l41.455-53.352
				L434.671,182.592L434.671,182.592z"/>
		</g>
		<g>
			<rect x="436.415" y="185.092" fill="#FFFFFF" width="34.893" height="136.68"/>
			<path fill="#1563A9" d="M468.808,187.592v131.68h-29.893v-131.68H468.808 M473.808,182.592h-5h-29.893h-5v5v131.68v5h5h29.893h5
				v-5v-131.68V182.592L473.808,182.592z"/>
		</g>
		<g>
			<path fill="#FFFFFF" d="M570.881,321.772l-28.846-52.085c-4.206-7.569-11.494-21.146-18.307-36.073
				c0.483,14.277,0.721,29.437,0.721,45.997v42.161h-32.354v-136.68h38.733l28.071,49.524c5.598,9.937,11.207,21.193,16.101,32.241
				c-0.849-11.87-1.239-24.983-1.239-40.777v-40.988h32.352v136.68H570.881z"/>
			<path fill="#1563A9" d="M603.613,187.592v131.68h-31.259l-28.133-50.796c-7.815-14.067-16.411-31.065-22.859-46.499l-0.586,0.195
				c0.78,17.389,1.173,35.948,1.173,57.438v39.661h-27.354v-131.68h34.776l27.354,48.256c7.814,13.872,15.629,30.282,21.49,45.132
				h0.586c-1.953-17.389-2.54-35.167-2.54-54.9v-38.488H603.613 M608.613,182.592h-5h-27.352h-5v5v38.488
				c0,10.284,0.165,19.439,0.515,27.858c-3.44-7.125-7.07-14.111-10.694-20.544l-27.36-48.268l-1.437-2.534h-2.913h-34.776h-5v5
				v131.68v5h5h27.354h5v-5v-39.661c0-12.055-0.125-23.371-0.38-34.146c5.167,10.571,10.101,19.714,13.281,25.439l28.13,50.79
				l1.428,2.577h2.946h31.259h5v-5v-131.68V182.592L608.613,182.592z"/>
		</g>
		<g>
			<path fill="#FFFFFF" d="M695.441,323.139c-24.341,0-42.42-6.046-55.271-18.481c-12.652-11.836-19.525-29.492-19.321-49.688
				c0.098-21.722,7.824-39.934,22.344-52.652c13.888-12.164,33.036-18.594,55.375-18.594c17.551,0,30.943,3.459,37.624,6.696
				l1.85,0.896l-7.513,28.64l-2.672-1.155c-5.878-2.543-14.563-5.462-29.681-5.462c-25.715,0-41.067,14.987-41.067,40.092
				c0,25.091,14.912,40.677,38.917,40.677c5.612,0,9.83-0.543,12.154-1.19v-23.312h-20.319v-28.248h54.038v73.646l-1.694,0.576
				C729.475,319.235,712.08,323.139,695.441,323.139z"/>
			<path fill="#1563A9" d="M698.568,186.225c16.996,0,30.085,3.321,36.534,6.446l-6.253,23.836
				c-7.228-3.127-16.216-5.667-30.673-5.667c-24.812,0-43.567,14.067-43.567,42.592c0,27.155,16.998,43.177,41.417,43.177
				c6.839,0,12.311-0.781,14.654-1.954v-27.548h-20.319v-23.248h49.038v69.356c-9.182,3.126-26.569,7.424-43.958,7.424
				c-24.03,0-41.419-6.056-53.532-17.778c-12.112-11.331-18.755-28.525-18.56-47.865
				C623.546,211.232,655.391,186.225,698.568,186.225 M698.568,181.225c-22.954,0-42.672,6.644-57.021,19.213
				c-15.075,13.204-23.097,32.062-23.197,54.536c-0.211,20.859,6.933,39.161,20.113,51.51
				c13.338,12.891,31.976,19.156,56.979,19.156c16.943,0,34.649-3.973,45.569-7.69l3.389-1.154v-3.579v-69.356v-5h-5h-49.038h-5v5
				v23.248v5h5h15.319v18.812c-2.146,0.376-5.389,0.69-9.654,0.69c-22.463,0-36.417-14.629-36.417-38.177
				c0-23.539,14.418-37.592,38.567-37.592c14.659,0,23.031,2.809,28.688,5.256l5.344,2.313l1.478-5.633l6.253-23.836l1.043-3.976
				l-3.698-1.792C730.353,184.813,716.542,181.225,698.568,181.225L698.568,181.225z"/>
		</g>
	</g>
</g>
<g id="Bandera">
	<rect x="418.785" y="1.25" fill="#D58528" width="3.737" height="31.458"/>
	<rect x="422.522" y="1.25" fill="#FBD116" width="21.978" height="17.25"/>
	<rect x="422.522" y="13.333" fill="#CE2028" width="21.978" height="5.25"/>
	<rect x="422.522" y="8.083" fill="#22408C" width="21.978" height="5.25"/>
</g>
</svg>
